<?xml version="1.0" standalone="no"?><!DOCTYPE svg PUBLIC "-//W3C//DTD SVG 1.1//EN" "http://www.w3.org/Graphics/SVG/1.1/DTD/svg11.dtd"><svg class="icon" width="200px" height="200.00px" viewBox="0 0 1024 1024" version="1.1" xmlns="http://www.w3.org/2000/svg"><path d="M512 0c54.826667 0 416 208.469333 443.392 256 27.52 47.573333 27.52 464.426667 0 512S566.912 1024 512 1024s-416-208.426667-443.52-256c-27.349333-47.573333-27.349333-464.426667 0-512C96 208.469333 457.173333 0 512 0z m97.92 290.090667a11.050667 11.050667 0 0 0-11.008 11.008v165.333333H425.088V294.741333h29.909333a10.88 10.88 0 0 0 10.837334-11.008 10.965333 10.965333 0 0 0-5.248-9.429333L393.514667 209.92a12.928 12.928 0 0 0-9.642667-4.650667 11.306667 11.306667 0 0 0-8.832 4.565334L303.36 274.346667a10.965333 10.965333 0 0 0-5.12 9.301333c0 6.101333 4.821333 11.008 10.88 11.008h30.037333l0.341334 428.16c0 6.186667 4.736 11.008 10.837333 11.008h63.658667a11.008 11.008 0 0 0 11.050666-10.922667v-170.837333h173.781334v177.152h-29.824a11.093333 11.093333 0 1 0-5.845334 20.352l67.370667 64.426667a12.842667 12.842667 0 0 0 9.6 4.650666 11.264 11.264 0 0 0 8.874667-4.650666l71.637333-64.426667a11.008 11.008 0 0 0-5.76-20.352h-30.037333l-0.298667-428.117333a10.965333 10.965333 0 0 0-10.88-11.093334h-63.744v0.085334z"  /></svg>